<?xml version="1.0" encoding="UTF-8" standalone="no"?>
<!-- Created with Inkscape (http://www.inkscape.org/) -->

<svg
   xmlns:dc="http://purl.org/dc/elements/1.1/"
   xmlns:cc="http://creativecommons.org/ns#"
   xmlns:rdf="http://www.w3.org/1999/02/22-rdf-syntax-ns#"
   xmlns:svg="http://www.w3.org/2000/svg"
   xmlns="http://www.w3.org/2000/svg"
   xmlns:sodipodi="http://sodipodi.sourceforge.net/DTD/sodipodi-0.dtd"
   xmlns:inkscape="http://www.inkscape.org/namespaces/inkscape"
   width="100mm"
   height="40mm"
   viewBox="0 0 100 40"
   version="1.1"
   id="svg8"
   inkscape:version="0.92.2 2405546, 2018-03-11"
   sodipodi:docname="header_bg.svg">
  <defs
     id="defs2">
    <marker
       inkscape:stockid="Arrow1Lstart"
       orient="auto"
       refY="0.0"
       refX="0.0"
       id="Arrow1Lstart"
       style="overflow:visible"
       inkscape:isstock="true">
      <path
         id="path4639"
         d="M 0.0,0.0 L 5.0,-5.0 L -12.5,0.0 L 5.0,5.0 L 0.0,0.0 z "
         style="fill-rule:evenodd;stroke:#000000;stroke-width:1.0pt"
         transform="scale(0.8) translate(12.5,0)" />
    </marker>
  </defs>
  <sodipodi:namedview
     id="base"
     pagecolor="#3f51b5"
     bordercolor="#666666"
     borderopacity="1.0"
     inkscape:pageopacity="0"
     inkscape:pageshadow="2"
     inkscape:zoom="2"
     inkscape:cx="128.7949"
     inkscape:cy="46.664057"
     inkscape:document-units="mm"
     inkscape:current-layer="layer1"
     showgrid="false"
     units="mm"
     width="100mm"
     inkscape:pagecheckerboard="false"
     inkscape:window-width="1920"
     inkscape:window-height="1016"
     inkscape:window-x="0"
     inkscape:window-y="27"
     inkscape:window-maximized="1" />
  <metadata
     id="metadata5">
    <rdf:RDF>
      <cc:Work
         rdf:about="">
        <dc:format>image/svg+xml</dc:format>
        <dc:type
           rdf:resource="http://purl.org/dc/dcmitype/StillImage" />
        <dc:title></dc:title>
      </cc:Work>
    </rdf:RDF>
  </metadata>
  <g
     inkscape:label="Layer 1"
     inkscape:groupmode="layer"
     id="layer1"
     transform="translate(0,-257)">
    <rect
       style="opacity:0.51999996;fill:#e91c63;fill-opacity:1;fill-rule:nonzero;stroke:#000000;stroke-width:1.39999998;stroke-linecap:round;stroke-linejoin:round;stroke-miterlimit:4;stroke-dasharray:none;stroke-dashoffset:0;stroke-opacity:1;paint-order:fill markers stroke"
       id="rect4616"
       width="38.364586"
       height="11.112531"
       x="42.068752"
       y="262.60416"
       ry="2.1166606"
       rx="2.5135417" />
    <path
       style="fill:#464646;stroke-width:0.03047922;fill-opacity:1"
       d="m 73.934636,282.2143 c -0.710834,-0.177 -1.263187,-0.70591 -1.445768,-1.3844 -0.05906,-0.21947 -0.06165,-0.3387 -0.06165,-2.83442 0,-2.49573 0.0026,-2.61496 0.06165,-2.83443 0.18415,-0.68432 0.738063,-1.21076 1.458084,-1.38578 0.132584,-0.0322 0.295086,-0.0586 0.361117,-0.0586 h 0.120056 l 1.88e-4,-1.56741 c 2.5e-4,-1.99829 0.02838,-2.20255 0.404521,-2.93545 0.412743,-0.80423 1.014491,-1.37614 1.860684,-1.76842 0.564284,-0.26159 1.11869,-0.38429 1.736428,-0.38429 0.617738,0 1.172144,0.1227 1.736428,0.38429 0.846193,0.39228 1.447941,0.96419 1.860687,1.76842 0.376138,0.7329 0.404287,0.93716 0.404522,2.93545 l 1.84e-4,1.56741 h 0.120056 c 0.06603,0 0.228533,0.0264 0.361117,0.0586 0.720021,0.17502 1.273934,0.70146 1.458084,1.38578 0.05906,0.21947 0.06165,0.3387 0.06165,2.83443 0,2.49572 -0.0026,2.61495 -0.06165,2.83442 -0.18415,0.68432 -0.738063,1.21077 -1.458084,1.38579 -0.234293,0.0569 -0.360522,0.0586 -4.495811,0.057 -4.083322,-0.002 -4.263926,-0.004 -4.482493,-0.0584 z m 4.715351,-1.90856 c 0.101907,-0.0489 0.158453,-0.10259 0.209842,-0.19944 0.06787,-0.12792 0.07035,-0.16138 0.07036,-0.95085 l 1.5e-5,-0.81826 0.153798,-0.12588 c 0.428552,-0.35076 0.449582,-0.97277 0.04586,-1.35647 -0.06684,-0.0635 -0.198909,-0.15035 -0.293483,-0.19294 -0.358129,-0.16129 -0.818027,-0.0811 -1.106353,0.19294 -0.29333,0.27879 -0.374242,0.71516 -0.196421,1.05933 0.05399,0.1045 0.148438,0.22033 0.242283,0.29714 l 0.153798,0.12588 1.5e-5,0.81826 c 1.5e-5,0.78947 0.0025,0.82293 0.07036,0.95085 0.07572,0.14272 0.275214,0.26629 0.429883,0.26629 0.0443,0 0.143317,-0.0301 0.220041,-0.0668 z m 1.774249,-8.18619 -0.0092,-1.59713 -0.08556,-0.24004 c -0.207202,-0.58131 -0.680225,-1.0303 -1.287451,-1.22204 -0.215312,-0.068 -0.305598,-0.0798 -0.612104,-0.0798 -0.306506,0 -0.396792,0.0118 -0.612104,0.0798 -0.607226,0.19174 -1.080249,0.64073 -1.287451,1.22204 l -0.08556,0.24004 -0.0092,1.59713 -0.0092,1.59712 h 2.003464 2.003464 z"
       id="path4909"
       inkscape:connector-curvature="0" />
    <text
       xml:space="preserve"
       style="font-style:normal;font-weight:normal;font-size:10.58333302px;line-height:1.25;font-family:sans-serif;letter-spacing:0px;word-spacing:0px;fill:#464646;fill-opacity:1;stroke:none;stroke-width:0.26458332;"
       x="45.243748"
       y="273.58438"
       id="text4913"><tspan
         sodipodi:role="line"
         id="tspan4911"
         x="45.243748"
         y="273.58438"
         style="font-weight:bold;stroke-width:0.26458332;fill:#464646;fill-opacity:1;">***</tspan></text>
  </g>
</svg>
